<svg xmlns="http://www.w3.org/2000/svg" viewBox="0 0 24 24" fill="#E11D48">
  <path d="M21.64,2.62a2.4,2.4,0,0,0-2.45-1.2A13.23,13.23,0,0,0,12,3,13.23,13.23,0,0,0,4.81,1.42a2.4,2.4,0,0,0-2.45,1.2A2.38,2.38,0,0,0,2.2,5.26c.16.19.34.37.54.55A13.2,13.2,0,0,0,2,9.22V19a3,3,0,0,0,3,3H19a3,3,0,0,0,3-3V9.22A13.2,13.2,0,0,0,21.26,5.81c.2-.18.38-.36.54-.55A2.38,2.38,0,0,0,21.64,2.62ZM12,5.08A11.22,11.22,0,0,1,19,6.54V19H13V5.17A11.33,11.33,0,0,1,12,5.08ZM5,6.54A11.22,11.22,0,0,1,12,5.08a11.33,11.33,0,0,1-1,.09V19H5Z"/>
  <path fill="#fbbf24" d="M16 11l1.5 3 3 0.5 -2.25 2 0.75 3 -2.5 -1.75 -2.5 1.75 0.75 -3 -2.25 -2 3 -0.5z"/>
</svg>
